<!--?xml version="1.0" encoding="utf-8"?-->
<!-- Generator: Adobe Illustrator 18.0.0, SVG Export Plug-In . SVG Version: 6.00 Build 0)  -->

<svg version="1.1" id="_x32_" xmlns="http://www.w3.org/2000/svg" xmlns:xlink="http://www.w3.org/1999/xlink" x="0px" y="0px" viewBox="0 0 512 512" style="width: 256px; height: 256px; opacity: 1;" xml:space="preserve">
<style type="text/css">
	.st0{fill:#4B4B4B;}
</style>
<g>
	<path class="st0" d="M216.141,258.419c20.43-48.178,43.45-94.678,66.082-141.801c12.861-28.262,27.282-55.507,43.435-81.884
		c0.015-0.024,0.03-0.049,0.046-0.075c8.876-14.626-1.061-33.436-18.142-34.42C211.61-5.291,99.402,85.973,51.658,198.556
		C3.79,311.43,36.446,408.656,112.953,460.942c12.581,8.598,29.902,2.461,34.411-12.095c6.128-19.78,12.578-39.918,18.428-57.678
		C182.251,346.612,197.573,302.204,216.141,258.419z" style="fill: rgb(255, 255, 255);"></path>
	<path class="st0" d="M454.214,369.53c47.806-112.729,35.318-257.06-35.6-322.071c-12.465-11.427-32.6-5.724-37.205,10.547
		c-0.354,1.253-0.613,2.172-0.743,2.673c-7.734,29.948-17.294,59.253-28.672,88.146c-18.143,49.027-35.569,97.899-56.001,146.076
		c-18.569,43.784-39.842,85.669-60.43,128.473c-8.394,15.967-17.99,33.874-27.6,51.419c-7.318,13.361,0.34,30.071,15.265,33.119
		C313.92,526.435,406.389,482.303,454.214,369.53z" style="fill: rgb(255, 255, 255);"></path>
</g>
</svg>
